<svg xmlns="http://www.w3.org/2000/svg" xmlns:xlink="http://www.w3.org/1999/xlink" width="1260" zoomAndPan="magnify" viewBox="0 0 944.88 525.000007" height="700" preserveAspectRatio="xMidYMid meet" version="1.2"><defs><clipPath id="f3f716de89"><path d="M 0.839844 0 L 943.921875 0 L 943.921875 524 L 0.839844 524 Z M 0.839844 0 "/></clipPath><clipPath id="9d35744d2a"><path d="M 78.222656 199.8125 L 867 199.8125 L 867 358.976562 L 78.222656 358.976562 Z M 78.222656 199.8125 "/></clipPath><clipPath id="07d9155079"><path d="M 472.441406 199.8125 C 254.722656 199.8125 78.222656 235.441406 78.222656 279.394531 C 78.222656 323.347656 254.722656 358.976562 472.441406 358.976562 C 690.160156 358.976562 866.65625 323.347656 866.65625 279.394531 C 866.65625 235.441406 690.160156 199.8125 472.441406 199.8125 Z M 472.441406 199.8125 "/></clipPath><clipPath id="d0b710bc1b"><path d="M 0.839844 184.1875 L 943.921875 184.1875 L 943.921875 374.597656 L 0.839844 374.597656 Z M 0.839844 184.1875 "/></clipPath><clipPath id="3d53ac1167"><path d="M 472.441406 184.1875 C 211.980469 184.1875 0.839844 226.8125 0.839844 279.394531 C 0.839844 331.976562 211.980469 374.597656 472.441406 374.597656 C 732.898438 374.597656 944.042969 331.976562 944.042969 279.394531 C 944.042969 226.8125 732.898438 184.1875 472.441406 184.1875 Z M 472.441406 184.1875 "/></clipPath><clipPath id="c97d1c6636"><path d="M 0.839844 0 L 943.921875 0 L 943.921875 3 L 0.839844 3 Z M 0.839844 0 "/></clipPath><clipPath id="686e32bb4f"><path d="M 0.839844 104 L 943.921875 104 L 943.921875 107 L 0.839844 107 Z M 0.839844 104 "/></clipPath></defs><g id="4804b60710"><g clip-rule="nonzero" clip-path="url(#f3f716de89)"><path style=" stroke:none;fill-rule:nonzero;fill:#ffffff;fill-opacity:1;" d="M 0.839844 0 L 944.042969 0 L 944.042969 524 L 0.839844 524 Z M 0.839844 0 "/><path style=" stroke:none;fill-rule:nonzero;fill:#e65e07;fill-opacity:1;" d="M 0.839844 0 L 944.042969 0 L 944.042969 524 L 0.839844 524 Z M 0.839844 0 "/></g><g clip-rule="nonzero" clip-path="url(#9d35744d2a)"><g clip-rule="nonzero" clip-path="url(#07d9155079)"><path style=" stroke:none;fill-rule:nonzero;fill:#ede5de;fill-opacity:1;" d="M 78.222656 199.8125 L 866.589844 199.8125 L 866.589844 358.976562 L 78.222656 358.976562 Z M 78.222656 199.8125 "/></g></g><g style="fill:#ede5de;fill-opacity:1;"><g transform="translate(264.52377, 161.863721)"><path style="stroke:none" d="M 10.765625 -9.546875 C 12.421875 -9.421875 13.691406 -8.988281 14.578125 -8.25 C 15.472656 -7.507812 15.921875 -6.476562 15.921875 -5.15625 C 15.921875 -4.101562 15.703125 -3.191406 15.265625 -2.421875 C 14.835938 -1.648438 14.160156 -1.050781 13.234375 -0.625 C 12.304688 -0.207031 11.101562 0 9.625 0 L 1.515625 0 L 1.515625 -18.328125 L 9.359375 -18.328125 C 11.285156 -18.328125 12.703125 -17.929688 13.609375 -17.140625 C 14.523438 -16.347656 14.984375 -15.238281 14.984375 -13.8125 C 14.984375 -12.570312 14.640625 -11.601562 13.953125 -10.90625 C 13.265625 -10.21875 12.203125 -9.796875 10.765625 -9.640625 Z M 8.8125 -10.140625 C 9.269531 -10.140625 9.707031 -10.1875 10.125 -10.28125 C 10.539062 -10.375 10.914062 -10.53125 11.25 -10.75 C 11.59375 -10.96875 11.863281 -11.257812 12.0625 -11.625 C 12.257812 -12 12.359375 -12.460938 12.359375 -13.015625 C 12.359375 -13.535156 12.253906 -13.957031 12.046875 -14.28125 C 11.847656 -14.613281 11.570312 -14.867188 11.21875 -15.046875 C 10.875 -15.234375 10.476562 -15.359375 10.03125 -15.421875 C 9.59375 -15.492188 9.140625 -15.53125 8.671875 -15.53125 L 4.375 -15.53125 L 4.375 -10.140625 Z M 8.890625 -2.796875 C 9.804688 -2.796875 10.585938 -2.882812 11.234375 -3.0625 C 11.890625 -3.25 12.390625 -3.5625 12.734375 -4 C 13.085938 -4.4375 13.265625 -5.03125 13.265625 -5.78125 C 13.265625 -6.539062 13.097656 -7.140625 12.765625 -7.578125 C 12.429688 -8.023438 11.960938 -8.347656 11.359375 -8.546875 C 10.765625 -8.742188 10.066406 -8.84375 9.265625 -8.84375 L 4.375 -8.84375 L 4.375 -2.796875 Z M 8.890625 -2.796875 "/></g></g><g style="fill:#ede5de;fill-opacity:1;"><g transform="translate(280.948397, 161.863721)"><path style="stroke:none" d="M 7.046875 -2.140625 C 7.703125 -2.140625 8.285156 -2.234375 8.796875 -2.421875 C 9.316406 -2.617188 9.738281 -2.90625 10.0625 -3.28125 C 10.394531 -3.664062 10.59375 -4.144531 10.65625 -4.71875 L 12.515625 -3.921875 C 12.429688 -3.117188 12.15625 -2.390625 11.6875 -1.734375 C 11.21875 -1.078125 10.582031 -0.554688 9.78125 -0.171875 C 8.988281 0.210938 8.046875 0.40625 6.953125 0.40625 C 5.921875 0.40625 5.003906 0.234375 4.203125 -0.109375 C 3.398438 -0.453125 2.726562 -0.9375 2.1875 -1.5625 C 1.644531 -2.1875 1.234375 -2.925781 0.953125 -3.78125 C 0.671875 -4.632812 0.53125 -5.578125 0.53125 -6.609375 C 0.53125 -7.679688 0.691406 -8.640625 1.015625 -9.484375 C 1.347656 -10.335938 1.804688 -11.054688 2.390625 -11.640625 C 2.972656 -12.234375 3.660156 -12.6875 4.453125 -13 C 5.242188 -13.320312 6.109375 -13.484375 7.046875 -13.484375 C 8.015625 -13.484375 8.894531 -13.320312 9.6875 -13 C 10.488281 -12.675781 11.148438 -12.207031 11.671875 -11.59375 C 12.203125 -10.988281 12.539062 -10.253906 12.6875 -9.390625 C 12.84375 -8.523438 12.753906 -7.5625 12.421875 -6.5 L 2.875 -6.5 C 2.90625 -5.632812 3.078125 -4.875 3.390625 -4.21875 C 3.710938 -3.5625 4.179688 -3.050781 4.796875 -2.6875 C 5.410156 -2.320312 6.160156 -2.140625 7.046875 -2.140625 Z M 7.03125 -11.03125 C 5.800781 -11.03125 4.828125 -10.6875 4.109375 -10 C 3.398438 -9.320312 3 -8.390625 2.90625 -7.203125 L 10.296875 -7.203125 C 10.492188 -7.972656 10.472656 -8.644531 10.234375 -9.21875 C 10.003906 -9.789062 9.609375 -10.234375 9.046875 -10.546875 C 8.492188 -10.867188 7.820312 -11.03125 7.03125 -11.03125 Z M 7.03125 -11.03125 "/></g></g><g style="fill:#ede5de;fill-opacity:1;"><g transform="translate(294.251833, 161.863721)"><path style="stroke:none" d="M 5.5625 -6.515625 C 5.144531 -6.585938 4.71875 -6.671875 4.28125 -6.765625 C 3.851562 -6.867188 3.4375 -6.992188 3.03125 -7.140625 C 2.632812 -7.296875 2.273438 -7.492188 1.953125 -7.734375 C 1.628906 -7.972656 1.375 -8.265625 1.1875 -8.609375 C 1.007812 -8.960938 0.921875 -9.382812 0.921875 -9.875 C 0.921875 -10.59375 1.109375 -11.21875 1.484375 -11.75 C 1.867188 -12.289062 2.441406 -12.710938 3.203125 -13.015625 C 3.960938 -13.316406 4.914062 -13.46875 6.0625 -13.46875 C 6.707031 -13.46875 7.332031 -13.398438 7.9375 -13.265625 C 8.539062 -13.128906 9.09375 -12.921875 9.59375 -12.640625 C 10.09375 -12.367188 10.507812 -12.019531 10.84375 -11.59375 C 11.175781 -11.164062 11.398438 -10.65625 11.515625 -10.0625 C 11.628906 -9.476562 11.597656 -8.8125 11.421875 -8.0625 L 9.5 -7.796875 C 9.6875 -8.515625 9.644531 -9.109375 9.375 -9.578125 C 9.113281 -10.054688 8.695312 -10.410156 8.125 -10.640625 C 7.550781 -10.867188 6.882812 -10.984375 6.125 -10.984375 C 5.144531 -10.984375 4.40625 -10.820312 3.90625 -10.5 C 3.414062 -10.175781 3.171875 -9.75 3.171875 -9.21875 C 3.171875 -8.78125 3.304688 -8.429688 3.578125 -8.171875 C 3.847656 -7.910156 4.207031 -7.703125 4.65625 -7.546875 C 5.113281 -7.398438 5.617188 -7.265625 6.171875 -7.140625 L 6.828125 -7.015625 C 7.953125 -6.796875 8.898438 -6.546875 9.671875 -6.265625 C 10.453125 -5.992188 11.039062 -5.644531 11.4375 -5.21875 C 11.84375 -4.789062 12.046875 -4.238281 12.046875 -3.5625 C 12.046875 -2.757812 11.832031 -2.0625 11.40625 -1.46875 C 10.976562 -0.875 10.34375 -0.414062 9.5 -0.09375 C 8.65625 0.226562 7.617188 0.390625 6.390625 0.390625 C 5.679688 0.390625 5.007812 0.316406 4.375 0.171875 C 3.738281 0.0234375 3.160156 -0.195312 2.640625 -0.5 C 2.117188 -0.800781 1.679688 -1.179688 1.328125 -1.640625 C 0.984375 -2.109375 0.757812 -2.648438 0.65625 -3.265625 C 0.550781 -3.878906 0.597656 -4.570312 0.796875 -5.34375 L 2.75 -5.609375 C 2.59375 -4.992188 2.582031 -4.460938 2.71875 -4.015625 C 2.863281 -3.578125 3.109375 -3.222656 3.453125 -2.953125 C 3.804688 -2.679688 4.234375 -2.476562 4.734375 -2.34375 C 5.242188 -2.21875 5.785156 -2.15625 6.359375 -2.15625 C 7.035156 -2.15625 7.625 -2.234375 8.125 -2.390625 C 8.632812 -2.554688 9.03125 -2.785156 9.3125 -3.078125 C 9.601562 -3.367188 9.75 -3.71875 9.75 -4.125 C 9.75 -4.675781 9.445312 -5.117188 8.84375 -5.453125 C 8.25 -5.785156 7.378906 -6.085938 6.234375 -6.359375 Z M 5.5625 -6.515625 "/></g></g><g style="fill:#ede5de;fill-opacity:1;"><g transform="translate(306.851726, 161.863721)"><path style="stroke:none" d="M 9.375 -4.484375 L 11.265625 -4.40625 C 11.347656 -3.738281 11.320312 -3.113281 11.1875 -2.53125 C 11.050781 -1.945312 10.796875 -1.429688 10.421875 -0.984375 C 10.054688 -0.546875 9.582031 -0.207031 9 0.03125 C 8.414062 0.28125 7.71875 0.40625 6.90625 0.40625 C 5.851562 0.40625 5.003906 0.203125 4.359375 -0.203125 C 3.722656 -0.617188 3.257812 -1.203125 2.96875 -1.953125 C 2.6875 -2.710938 2.546875 -3.601562 2.546875 -4.625 L 2.546875 -10.515625 L 0.171875 -10.515625 L 0.171875 -13.0625 L 1.515625 -13.0625 C 2.078125 -13.0625 2.457031 -13.207031 2.65625 -13.5 C 2.863281 -13.789062 2.96875 -14.195312 2.96875 -14.71875 L 2.96875 -17.234375 L 5.0625 -17.234375 C 5.0625 -16.535156 5.054688 -15.953125 5.046875 -15.484375 C 5.046875 -15.023438 5.03125 -14.648438 5 -14.359375 C 4.96875 -14.066406 4.910156 -13.835938 4.828125 -13.671875 C 4.753906 -13.503906 4.644531 -13.375 4.5 -13.28125 L 4.5 -13.0625 L 9.421875 -13.0625 L 9.421875 -10.515625 L 5.09375 -10.515625 L 5.09375 -4.984375 C 5.09375 -4.273438 5.175781 -3.707031 5.34375 -3.28125 C 5.519531 -2.863281 5.769531 -2.566406 6.09375 -2.390625 C 6.414062 -2.210938 6.796875 -2.125 7.234375 -2.125 C 7.953125 -2.125 8.503906 -2.3125 8.890625 -2.6875 C 9.285156 -3.0625 9.445312 -3.660156 9.375 -4.484375 Z M 9.375 -4.484375 "/></g></g><g style="fill:#ede5de;fill-opacity:1;"><g transform="translate(318.261981, 161.863721)"><path style="stroke:none" d=""/></g></g><g style="fill:#ede5de;fill-opacity:1;"><g transform="translate(325.386998, 161.863721)"><path style="stroke:none" d="M 8.046875 0.46875 C 6.671875 0.46875 5.484375 0.273438 4.484375 -0.109375 C 3.492188 -0.503906 2.691406 -1.050781 2.078125 -1.75 C 1.472656 -2.445312 1.0625 -3.265625 0.84375 -4.203125 C 0.632812 -5.140625 0.625 -6.148438 0.8125 -7.234375 L 3.375 -7.890625 C 3.15625 -7.191406 3.085938 -6.519531 3.171875 -5.875 C 3.265625 -5.226562 3.507812 -4.65625 3.90625 -4.15625 C 4.300781 -3.65625 4.847656 -3.257812 5.546875 -2.96875 C 6.253906 -2.675781 7.101562 -2.53125 8.09375 -2.53125 C 9.125 -2.53125 9.945312 -2.671875 10.5625 -2.953125 C 11.175781 -3.234375 11.617188 -3.597656 11.890625 -4.046875 C 12.171875 -4.492188 12.3125 -4.96875 12.3125 -5.46875 C 12.3125 -6.039062 12.191406 -6.535156 11.953125 -6.953125 C 11.710938 -7.378906 11.3125 -7.742188 10.75 -8.046875 C 10.195312 -8.347656 9.4375 -8.585938 8.46875 -8.765625 L 6.078125 -9.140625 C 4.921875 -9.328125 3.96875 -9.640625 3.21875 -10.078125 C 2.46875 -10.515625 1.914062 -11.050781 1.5625 -11.6875 C 1.207031 -12.332031 1.03125 -13.046875 1.03125 -13.828125 C 1.03125 -14.660156 1.191406 -15.382812 1.515625 -16 C 1.835938 -16.625 2.285156 -17.144531 2.859375 -17.5625 C 3.441406 -17.976562 4.128906 -18.289062 4.921875 -18.5 C 5.710938 -18.707031 6.578125 -18.8125 7.515625 -18.8125 C 8.585938 -18.8125 9.582031 -18.671875 10.5 -18.390625 C 11.425781 -18.109375 12.21875 -17.671875 12.875 -17.078125 C 13.539062 -16.492188 14.023438 -15.726562 14.328125 -14.78125 C 14.628906 -13.84375 14.695312 -12.707031 14.53125 -11.375 L 11.90625 -10.671875 C 12.132812 -11.484375 12.207031 -12.179688 12.125 -12.765625 C 12.039062 -13.347656 11.847656 -13.832031 11.546875 -14.21875 C 11.253906 -14.613281 10.882812 -14.925781 10.4375 -15.15625 C 9.988281 -15.394531 9.503906 -15.566406 8.984375 -15.671875 C 8.460938 -15.773438 7.941406 -15.828125 7.421875 -15.828125 C 6.578125 -15.828125 5.878906 -15.710938 5.328125 -15.484375 C 4.773438 -15.253906 4.363281 -14.941406 4.09375 -14.546875 C 3.832031 -14.148438 3.703125 -13.710938 3.703125 -13.234375 C 3.703125 -12.765625 3.789062 -12.335938 3.96875 -11.953125 C 4.15625 -11.566406 4.476562 -11.234375 4.9375 -10.953125 C 5.394531 -10.679688 6.039062 -10.460938 6.875 -10.296875 L 9.140625 -9.921875 C 10.535156 -9.703125 11.660156 -9.363281 12.515625 -8.90625 C 13.378906 -8.445312 14.007812 -7.878906 14.40625 -7.203125 C 14.8125 -6.535156 15.015625 -5.773438 15.015625 -4.921875 C 15.015625 -4.046875 14.832031 -3.269531 14.46875 -2.59375 C 14.101562 -1.925781 13.601562 -1.363281 12.96875 -0.90625 C 12.332031 -0.457031 11.59375 -0.117188 10.75 0.109375 C 9.914062 0.347656 9.015625 0.46875 8.046875 0.46875 Z M 8.046875 0.46875 "/></g></g><g style="fill:#ede5de;fill-opacity:1;"><g transform="translate(341.069703, 161.863721)"><path style="stroke:none" d="M 1.125 -13.0625 L 3.65625 -13.0625 L 3.65625 -6.296875 C 3.65625 -4.953125 3.9375 -3.957031 4.5 -3.3125 C 5.0625 -2.664062 5.90625 -2.34375 7.03125 -2.34375 C 7.789062 -2.34375 8.484375 -2.535156 9.109375 -2.921875 C 9.734375 -3.304688 10.226562 -3.863281 10.59375 -4.59375 C 10.96875 -5.320312 11.15625 -6.1875 11.15625 -7.1875 L 11.15625 -13.0625 L 13.703125 -13.0625 L 13.703125 0 L 10.984375 0 L 11.5 -5.140625 L 11.40625 -5.140625 C 11.113281 -3.765625 10.703125 -2.671875 10.171875 -1.859375 C 9.648438 -1.046875 9.03125 -0.460938 8.3125 -0.109375 C 7.601562 0.234375 6.8125 0.40625 5.9375 0.40625 C 5.0625 0.40625 4.316406 0.257812 3.703125 -0.03125 C 3.085938 -0.320312 2.585938 -0.738281 2.203125 -1.28125 C 1.828125 -1.820312 1.550781 -2.460938 1.375 -3.203125 C 1.207031 -3.953125 1.125 -4.78125 1.125 -5.6875 Z M 1.125 -13.0625 "/></g></g><g style="fill:#ede5de;fill-opacity:1;"><g transform="translate(355.997698, 161.863721)"><path style="stroke:none" d="M 1.234375 0 L 1.234375 -13.0625 L 3.921875 -13.0625 L 3.4375 -7.9375 L 3.546875 -7.9375 C 3.765625 -9.09375 4.109375 -10.082031 4.578125 -10.90625 C 5.054688 -11.738281 5.632812 -12.375 6.3125 -12.8125 C 7 -13.25 7.765625 -13.46875 8.609375 -13.46875 C 9.910156 -13.46875 10.875 -12.988281 11.5 -12.03125 C 12.125 -11.082031 12.398438 -9.71875 12.328125 -7.9375 L 12.453125 -7.9375 C 12.679688 -9.226562 13.039062 -10.28125 13.53125 -11.09375 C 14.03125 -11.914062 14.617188 -12.515625 15.296875 -12.890625 C 15.984375 -13.273438 16.722656 -13.46875 17.515625 -13.46875 C 18.335938 -13.46875 19.015625 -13.328125 19.546875 -13.046875 C 20.085938 -12.773438 20.515625 -12.375 20.828125 -11.84375 C 21.140625 -11.320312 21.359375 -10.695312 21.484375 -9.96875 C 21.609375 -9.238281 21.671875 -8.421875 21.671875 -7.515625 L 21.671875 0 L 19.140625 0 L 19.140625 -7.109375 C 19.140625 -7.992188 19.039062 -8.703125 18.84375 -9.234375 C 18.644531 -9.765625 18.34375 -10.144531 17.9375 -10.375 C 17.539062 -10.613281 17.050781 -10.734375 16.46875 -10.734375 C 16.007812 -10.734375 15.5625 -10.632812 15.125 -10.4375 C 14.6875 -10.238281 14.289062 -9.945312 13.9375 -9.5625 C 13.582031 -9.1875 13.296875 -8.71875 13.078125 -8.15625 C 12.859375 -7.59375 12.742188 -6.941406 12.734375 -6.203125 L 12.734375 0 L 10.1875 0 L 10.1875 -7.03125 C 10.1875 -8.375 9.960938 -9.328125 9.515625 -9.890625 C 9.066406 -10.453125 8.410156 -10.734375 7.546875 -10.734375 C 7.078125 -10.734375 6.613281 -10.625 6.15625 -10.40625 C 5.707031 -10.1875 5.304688 -9.867188 4.953125 -9.453125 C 4.597656 -9.046875 4.3125 -8.550781 4.09375 -7.96875 C 3.882812 -7.382812 3.78125 -6.722656 3.78125 -5.984375 L 3.78125 0 Z M 1.234375 0 "/></g></g><g style="fill:#ede5de;fill-opacity:1;"><g transform="translate(378.792624, 161.863721)"><path style="stroke:none" d="M 1.234375 0 L 1.234375 -13.0625 L 3.921875 -13.0625 L 3.4375 -7.9375 L 3.546875 -7.9375 C 3.765625 -9.09375 4.109375 -10.082031 4.578125 -10.90625 C 5.054688 -11.738281 5.632812 -12.375 6.3125 -12.8125 C 7 -13.25 7.765625 -13.46875 8.609375 -13.46875 C 9.910156 -13.46875 10.875 -12.988281 11.5 -12.03125 C 12.125 -11.082031 12.398438 -9.71875 12.328125 -7.9375 L 12.453125 -7.9375 C 12.679688 -9.226562 13.039062 -10.28125 13.53125 -11.09375 C 14.03125 -11.914062 14.617188 -12.515625 15.296875 -12.890625 C 15.984375 -13.273438 16.722656 -13.46875 17.515625 -13.46875 C 18.335938 -13.46875 19.015625 -13.328125 19.546875 -13.046875 C 20.085938 -12.773438 20.515625 -12.375 20.828125 -11.84375 C 21.140625 -11.320312 21.359375 -10.695312 21.484375 -9.96875 C 21.609375 -9.238281 21.671875 -8.421875 21.671875 -7.515625 L 21.671875 0 L 19.140625 0 L 19.140625 -7.109375 C 19.140625 -7.992188 19.039062 -8.703125 18.84375 -9.234375 C 18.644531 -9.765625 18.34375 -10.144531 17.9375 -10.375 C 17.539062 -10.613281 17.050781 -10.734375 16.46875 -10.734375 C 16.007812 -10.734375 15.5625 -10.632812 15.125 -10.4375 C 14.6875 -10.238281 14.289062 -9.945312 13.9375 -9.5625 C 13.582031 -9.1875 13.296875 -8.71875 13.078125 -8.15625 C 12.859375 -7.59375 12.742188 -6.941406 12.734375 -6.203125 L 12.734375 0 L 10.1875 0 L 10.1875 -7.03125 C 10.1875 -8.375 9.960938 -9.328125 9.515625 -9.890625 C 9.066406 -10.453125 8.410156 -10.734375 7.546875 -10.734375 C 7.078125 -10.734375 6.613281 -10.625 6.15625 -10.40625 C 5.707031 -10.1875 5.304688 -9.867188 4.953125 -9.453125 C 4.597656 -9.046875 4.3125 -8.550781 4.09375 -7.96875 C 3.882812 -7.382812 3.78125 -6.722656 3.78125 -5.984375 L 3.78125 0 Z M 1.234375 0 "/></g></g><g style="fill:#ede5de;fill-opacity:1;"><g transform="translate(401.587543, 161.863721)"><path style="stroke:none" d="M 7.046875 -2.140625 C 7.703125 -2.140625 8.285156 -2.234375 8.796875 -2.421875 C 9.316406 -2.617188 9.738281 -2.90625 10.0625 -3.28125 C 10.394531 -3.664062 10.59375 -4.144531 10.65625 -4.71875 L 12.515625 -3.921875 C 12.429688 -3.117188 12.15625 -2.390625 11.6875 -1.734375 C 11.21875 -1.078125 10.582031 -0.554688 9.78125 -0.171875 C 8.988281 0.210938 8.046875 0.40625 6.953125 0.40625 C 5.921875 0.40625 5.003906 0.234375 4.203125 -0.109375 C 3.398438 -0.453125 2.726562 -0.9375 2.1875 -1.5625 C 1.644531 -2.1875 1.234375 -2.925781 0.953125 -3.78125 C 0.671875 -4.632812 0.53125 -5.578125 0.53125 -6.609375 C 0.53125 -7.679688 0.691406 -8.640625 1.015625 -9.484375 C 1.347656 -10.335938 1.804688 -11.054688 2.390625 -11.640625 C 2.972656 -12.234375 3.660156 -12.6875 4.453125 -13 C 5.242188 -13.320312 6.109375 -13.484375 7.046875 -13.484375 C 8.015625 -13.484375 8.894531 -13.320312 9.6875 -13 C 10.488281 -12.675781 11.148438 -12.207031 11.671875 -11.59375 C 12.203125 -10.988281 12.539062 -10.253906 12.6875 -9.390625 C 12.84375 -8.523438 12.753906 -7.5625 12.421875 -6.5 L 2.875 -6.5 C 2.90625 -5.632812 3.078125 -4.875 3.390625 -4.21875 C 3.710938 -3.5625 4.179688 -3.050781 4.796875 -2.6875 C 5.410156 -2.320312 6.160156 -2.140625 7.046875 -2.140625 Z M 7.03125 -11.03125 C 5.800781 -11.03125 4.828125 -10.6875 4.109375 -10 C 3.398438 -9.320312 3 -8.390625 2.90625 -7.203125 L 10.296875 -7.203125 C 10.492188 -7.972656 10.472656 -8.644531 10.234375 -9.21875 C 10.003906 -9.789062 9.609375 -10.234375 9.046875 -10.546875 C 8.492188 -10.867188 7.820312 -11.03125 7.03125 -11.03125 Z M 7.03125 -11.03125 "/></g></g><g style="fill:#ede5de;fill-opacity:1;"><g transform="translate(414.89098, 161.863721)"><path style="stroke:none" d="M 3.78125 0 L 1.234375 0 L 1.234375 -13.0625 L 3.9375 -13.0625 L 3.421875 -7.59375 L 3.5625 -7.59375 C 3.757812 -8.8125 4.070312 -9.859375 4.5 -10.734375 C 4.9375 -11.617188 5.484375 -12.296875 6.140625 -12.765625 C 6.804688 -13.234375 7.578125 -13.46875 8.453125 -13.46875 C 9.148438 -13.46875 9.742188 -13.335938 10.234375 -13.078125 C 10.722656 -12.828125 11.109375 -12.472656 11.390625 -12.015625 C 11.671875 -11.566406 11.847656 -11.050781 11.921875 -10.46875 C 12.003906 -9.894531 11.992188 -9.273438 11.890625 -8.609375 C 11.785156 -7.953125 11.585938 -7.289062 11.296875 -6.625 L 9.5625 -6.671875 C 9.863281 -7.429688 9.988281 -8.113281 9.9375 -8.71875 C 9.894531 -9.320312 9.679688 -9.796875 9.296875 -10.140625 C 8.910156 -10.492188 8.347656 -10.671875 7.609375 -10.671875 C 7.054688 -10.671875 6.566406 -10.5625 6.140625 -10.34375 C 5.722656 -10.132812 5.363281 -9.847656 5.0625 -9.484375 C 4.769531 -9.117188 4.523438 -8.71875 4.328125 -8.28125 C 4.140625 -7.84375 4 -7.390625 3.90625 -6.921875 C 3.820312 -6.460938 3.78125 -6.023438 3.78125 -5.609375 Z M 3.78125 0 "/></g></g><g style="fill:#ede5de;fill-opacity:1;"><g transform="translate(427.068741, 161.863721)"><path style="stroke:none" d=""/></g></g><g style="fill:#ede5de;fill-opacity:1;"><g transform="translate(434.193766, 161.863721)"><path style="stroke:none" d="M 8.046875 0.46875 C 6.671875 0.46875 5.484375 0.273438 4.484375 -0.109375 C 3.492188 -0.503906 2.691406 -1.050781 2.078125 -1.75 C 1.472656 -2.445312 1.0625 -3.265625 0.84375 -4.203125 C 0.632812 -5.140625 0.625 -6.148438 0.8125 -7.234375 L 3.375 -7.890625 C 3.15625 -7.191406 3.085938 -6.519531 3.171875 -5.875 C 3.265625 -5.226562 3.507812 -4.65625 3.90625 -4.15625 C 4.300781 -3.65625 4.847656 -3.257812 5.546875 -2.96875 C 6.253906 -2.675781 7.101562 -2.53125 8.09375 -2.53125 C 9.125 -2.53125 9.945312 -2.671875 10.5625 -2.953125 C 11.175781 -3.234375 11.617188 -3.597656 11.890625 -4.046875 C 12.171875 -4.492188 12.3125 -4.96875 12.3125 -5.46875 C 12.3125 -6.039062 12.191406 -6.535156 11.953125 -6.953125 C 11.710938 -7.378906 11.3125 -7.742188 10.75 -8.046875 C 10.195312 -8.347656 9.4375 -8.585938 8.46875 -8.765625 L 6.078125 -9.140625 C 4.921875 -9.328125 3.96875 -9.640625 3.21875 -10.078125 C 2.46875 -10.515625 1.914062 -11.050781 1.5625 -11.6875 C 1.207031 -12.332031 1.03125 -13.046875 1.03125 -13.828125 C 1.03125 -14.660156 1.191406 -15.382812 1.515625 -16 C 1.835938 -16.625 2.285156 -17.144531 2.859375 -17.5625 C 3.441406 -17.976562 4.128906 -18.289062 4.921875 -18.5 C 5.710938 -18.707031 6.578125 -18.8125 7.515625 -18.8125 C 8.585938 -18.8125 9.582031 -18.671875 10.5 -18.390625 C 11.425781 -18.109375 12.21875 -17.671875 12.875 -17.078125 C 13.539062 -16.492188 14.023438 -15.726562 14.328125 -14.78125 C 14.628906 -13.84375 14.695312 -12.707031 14.53125 -11.375 L 11.90625 -10.671875 C 12.132812 -11.484375 12.207031 -12.179688 12.125 -12.765625 C 12.039062 -13.347656 11.847656 -13.832031 11.546875 -14.21875 C 11.253906 -14.613281 10.882812 -14.925781 10.4375 -15.15625 C 9.988281 -15.394531 9.503906 -15.566406 8.984375 -15.671875 C 8.460938 -15.773438 7.941406 -15.828125 7.421875 -15.828125 C 6.578125 -15.828125 5.878906 -15.710938 5.328125 -15.484375 C 4.773438 -15.253906 4.363281 -14.941406 4.09375 -14.546875 C 3.832031 -14.148438 3.703125 -13.710938 3.703125 -13.234375 C 3.703125 -12.765625 3.789062 -12.335938 3.96875 -11.953125 C 4.15625 -11.566406 4.476562 -11.234375 4.9375 -10.953125 C 5.394531 -10.679688 6.039062 -10.460938 6.875 -10.296875 L 9.140625 -9.921875 C 10.535156 -9.703125 11.660156 -9.363281 12.515625 -8.90625 C 13.378906 -8.445312 14.007812 -7.878906 14.40625 -7.203125 C 14.8125 -6.535156 15.015625 -5.773438 15.015625 -4.921875 C 15.015625 -4.046875 14.832031 -3.269531 14.46875 -2.59375 C 14.101562 -1.925781 13.601562 -1.363281 12.96875 -0.90625 C 12.332031 -0.457031 11.59375 -0.117188 10.75 0.109375 C 9.914062 0.347656 9.015625 0.46875 8.046875 0.46875 Z M 8.046875 0.46875 "/></g></g><g style="fill:#ede5de;fill-opacity:1;"><g transform="translate(449.876478, 161.863721)"><path style="stroke:none" d="M 2.515625 -14.53125 C 1.929688 -14.53125 1.484375 -14.675781 1.171875 -14.96875 C 0.859375 -15.257812 0.703125 -15.675781 0.703125 -16.21875 C 0.703125 -16.769531 0.859375 -17.1875 1.171875 -17.46875 C 1.484375 -17.75 1.929688 -17.890625 2.515625 -17.890625 C 3.097656 -17.890625 3.546875 -17.75 3.859375 -17.46875 C 4.171875 -17.1875 4.328125 -16.769531 4.328125 -16.21875 C 4.328125 -15.675781 4.171875 -15.257812 3.859375 -14.96875 C 3.546875 -14.675781 3.097656 -14.53125 2.515625 -14.53125 Z M 1.234375 0 L 1.234375 -13.0625 C 2.085938 -12.863281 2.9375 -12.863281 3.78125 -13.0625 L 3.78125 0 Z M 1.234375 0 "/></g></g><g style="fill:#ede5de;fill-opacity:1;"><g transform="translate(454.903638, 161.863721)"><path style="stroke:none" d="M 3.15625 -2.765625 C 5.175781 -2.765625 6.863281 -2.703125 8.21875 -2.578125 C 9.570312 -2.453125 10.640625 -2.253906 11.421875 -1.984375 C 12.210938 -1.722656 12.78125 -1.378906 13.125 -0.953125 C 13.46875 -0.523438 13.640625 -0.0078125 13.640625 0.59375 C 13.640625 1.21875 13.484375 1.785156 13.171875 2.296875 C 12.859375 2.816406 12.425781 3.257812 11.875 3.625 C 11.320312 4 10.679688 4.28125 9.953125 4.46875 C 9.222656 4.664062 8.453125 4.765625 7.640625 4.765625 C 6.765625 4.765625 5.957031 4.679688 5.21875 4.515625 C 4.476562 4.347656 3.84375 4.09375 3.3125 3.75 C 2.78125 3.414062 2.382812 2.992188 2.125 2.484375 C 1.863281 1.984375 1.765625 1.398438 1.828125 0.734375 C 1.898438 0.078125 2.160156 -0.664062 2.609375 -1.5 L 0.75 -1.484375 C 0.539062 -1.972656 0.476562 -2.429688 0.5625 -2.859375 C 0.65625 -3.285156 0.867188 -3.65625 1.203125 -3.96875 C 1.546875 -4.289062 1.988281 -4.550781 2.53125 -4.75 C 3.070312 -4.945312 3.691406 -5.066406 4.390625 -5.109375 C 3.378906 -5.429688 2.613281 -5.945312 2.09375 -6.65625 C 1.570312 -7.363281 1.3125 -8.191406 1.3125 -9.140625 C 1.3125 -10.523438 1.789062 -11.59375 2.75 -12.34375 C 3.71875 -13.09375 5.101562 -13.46875 6.90625 -13.46875 C 8.113281 -13.46875 9.148438 -13.304688 10.015625 -12.984375 C 9.910156 -13.210938 9.816406 -13.457031 9.734375 -13.71875 C 9.660156 -13.976562 9.625 -14.242188 9.625 -14.515625 C 9.625 -14.910156 9.707031 -15.273438 9.875 -15.609375 C 10.050781 -15.941406 10.296875 -16.210938 10.609375 -16.421875 C 10.929688 -16.628906 11.304688 -16.75 11.734375 -16.78125 C 12.171875 -16.8125 12.648438 -16.722656 13.171875 -16.515625 L 13.1875 -14.234375 C 12.863281 -14.378906 12.535156 -14.425781 12.203125 -14.375 C 11.878906 -14.320312 11.601562 -14.191406 11.375 -13.984375 C 11.15625 -13.773438 11.046875 -13.503906 11.046875 -13.171875 C 11.046875 -13.015625 11.054688 -12.867188 11.078125 -12.734375 C 11.109375 -12.597656 11.144531 -12.476562 11.1875 -12.375 C 11.675781 -12.007812 12.050781 -11.554688 12.3125 -11.015625 C 12.570312 -10.472656 12.703125 -9.847656 12.703125 -9.140625 C 12.703125 -8.191406 12.460938 -7.390625 11.984375 -6.734375 C 11.503906 -6.078125 10.832031 -5.582031 9.96875 -5.25 C 9.101562 -4.914062 8.097656 -4.75 6.953125 -4.75 L 6.890625 -4.75 C 5.867188 -4.75 5.03125 -4.660156 4.375 -4.484375 C 3.71875 -4.316406 3.226562 -4.109375 2.90625 -3.859375 C 2.59375 -3.609375 2.4375 -3.351562 2.4375 -3.09375 C 2.4375 -2.976562 2.484375 -2.894531 2.578125 -2.84375 C 2.671875 -2.800781 2.863281 -2.773438 3.15625 -2.765625 Z M 3.5625 -8.828125 C 3.5625 -8.378906 3.6875 -7.953125 3.9375 -7.546875 C 4.1875 -7.140625 4.5625 -6.8125 5.0625 -6.5625 C 5.5625 -6.3125 6.191406 -6.1875 6.953125 -6.1875 C 7.734375 -6.1875 8.378906 -6.3125 8.890625 -6.5625 C 9.410156 -6.8125 9.796875 -7.140625 10.046875 -7.546875 C 10.304688 -7.953125 10.4375 -8.378906 10.4375 -8.828125 C 10.4375 -9.253906 10.3125 -9.648438 10.0625 -10.015625 C 9.8125 -10.378906 9.429688 -10.675781 8.921875 -10.90625 C 8.410156 -11.144531 7.765625 -11.265625 6.984375 -11.265625 C 6.203125 -11.265625 5.554688 -11.144531 5.046875 -10.90625 C 4.546875 -10.675781 4.171875 -10.378906 3.921875 -10.015625 C 3.679688 -9.648438 3.5625 -9.253906 3.5625 -8.828125 Z M 6.8125 2.0625 C 7.675781 2.0625 8.421875 1.96875 9.046875 1.78125 C 9.671875 1.601562 10.148438 1.347656 10.484375 1.015625 C 10.828125 0.691406 11 0.3125 11 -0.125 C 11 -0.488281 10.863281 -0.785156 10.59375 -1.015625 C 10.320312 -1.242188 9.882812 -1.414062 9.28125 -1.53125 C 8.675781 -1.65625 7.882812 -1.738281 6.90625 -1.78125 C 5.925781 -1.832031 4.726562 -1.863281 3.3125 -1.875 C 2.488281 -0.550781 2.378906 0.429688 2.984375 1.078125 C 3.597656 1.734375 4.875 2.0625 6.8125 2.0625 Z M 6.8125 2.0625 "/></g></g><g style="fill:#ede5de;fill-opacity:1;"><g transform="translate(468.642002, 161.863721)"><path style="stroke:none" d="M 1.234375 0 L 1.234375 -18.5 L 3.78125 -18.5 L 3.78125 -11.890625 C 3.78125 -11.335938 3.765625 -10.863281 3.734375 -10.46875 C 3.710938 -10.082031 3.679688 -9.738281 3.640625 -9.4375 C 3.597656 -9.132812 3.554688 -8.847656 3.515625 -8.578125 C 3.472656 -8.304688 3.429688 -8.023438 3.390625 -7.734375 L 3.5 -7.734375 C 3.738281 -8.835938 4.101562 -9.820312 4.59375 -10.6875 C 5.082031 -11.550781 5.695312 -12.226562 6.4375 -12.71875 C 7.175781 -13.21875 8.035156 -13.46875 9.015625 -13.46875 C 9.984375 -13.46875 10.773438 -13.3125 11.390625 -13 C 12.015625 -12.695312 12.503906 -12.265625 12.859375 -11.703125 C 13.210938 -11.140625 13.460938 -10.476562 13.609375 -9.71875 C 13.753906 -8.957031 13.828125 -8.128906 13.828125 -7.234375 L 13.828125 0 L 11.3125 0 L 11.3125 -6.75 C 11.3125 -8.070312 11.050781 -9.066406 10.53125 -9.734375 C 10.019531 -10.398438 9.203125 -10.734375 8.078125 -10.734375 C 7.484375 -10.734375 6.925781 -10.613281 6.40625 -10.375 C 5.882812 -10.144531 5.425781 -9.8125 5.03125 -9.375 C 4.632812 -8.945312 4.320312 -8.4375 4.09375 -7.84375 C 3.875 -7.25 3.765625 -6.597656 3.765625 -5.890625 L 3.765625 0 Z M 1.234375 0 "/></g></g><g style="fill:#ede5de;fill-opacity:1;"><g transform="translate(483.595573, 161.863721)"><path style="stroke:none" d="M 9.375 -4.484375 L 11.265625 -4.40625 C 11.347656 -3.738281 11.320312 -3.113281 11.1875 -2.53125 C 11.050781 -1.945312 10.796875 -1.429688 10.421875 -0.984375 C 10.054688 -0.546875 9.582031 -0.207031 9 0.03125 C 8.414062 0.28125 7.71875 0.40625 6.90625 0.40625 C 5.851562 0.40625 5.003906 0.203125 4.359375 -0.203125 C 3.722656 -0.617188 3.257812 -1.203125 2.96875 -1.953125 C 2.6875 -2.710938 2.546875 -3.601562 2.546875 -4.625 L 2.546875 -10.515625 L 0.171875 -10.515625 L 0.171875 -13.0625 L 1.515625 -13.0625 C 2.078125 -13.0625 2.457031 -13.207031 2.65625 -13.5 C 2.863281 -13.789062 2.96875 -14.195312 2.96875 -14.71875 L 2.96875 -17.234375 L 5.0625 -17.234375 C 5.0625 -16.535156 5.054688 -15.953125 5.046875 -15.484375 C 5.046875 -15.023438 5.03125 -14.648438 5 -14.359375 C 4.96875 -14.066406 4.910156 -13.835938 4.828125 -13.671875 C 4.753906 -13.503906 4.644531 -13.375 4.5 -13.28125 L 4.5 -13.0625 L 9.421875 -13.0625 L 9.421875 -10.515625 L 5.09375 -10.515625 L 5.09375 -4.984375 C 5.09375 -4.273438 5.175781 -3.707031 5.34375 -3.28125 C 5.519531 -2.863281 5.769531 -2.566406 6.09375 -2.390625 C 6.414062 -2.210938 6.796875 -2.125 7.234375 -2.125 C 7.953125 -2.125 8.503906 -2.3125 8.890625 -2.6875 C 9.285156 -3.0625 9.445312 -3.660156 9.375 -4.484375 Z M 9.375 -4.484375 "/></g></g><g style="fill:#ede5de;fill-opacity:1;"><g transform="translate(495.005828, 161.863721)"><path style="stroke:none" d="M 5.5625 -6.515625 C 5.144531 -6.585938 4.71875 -6.671875 4.28125 -6.765625 C 3.851562 -6.867188 3.4375 -6.992188 3.03125 -7.140625 C 2.632812 -7.296875 2.273438 -7.492188 1.953125 -7.734375 C 1.628906 -7.972656 1.375 -8.265625 1.1875 -8.609375 C 1.007812 -8.960938 0.921875 -9.382812 0.921875 -9.875 C 0.921875 -10.59375 1.109375 -11.21875 1.484375 -11.75 C 1.867188 -12.289062 2.441406 -12.710938 3.203125 -13.015625 C 3.960938 -13.316406 4.914062 -13.46875 6.0625 -13.46875 C 6.707031 -13.46875 7.332031 -13.398438 7.9375 -13.265625 C 8.539062 -13.128906 9.09375 -12.921875 9.59375 -12.640625 C 10.09375 -12.367188 10.507812 -12.019531 10.84375 -11.59375 C 11.175781 -11.164062 11.398438 -10.65625 11.515625 -10.0625 C 11.628906 -9.476562 11.597656 -8.8125 11.421875 -8.0625 L 9.5 -7.796875 C 9.6875 -8.515625 9.644531 -9.109375 9.375 -9.578125 C 9.113281 -10.054688 8.695312 -10.410156 8.125 -10.640625 C 7.550781 -10.867188 6.882812 -10.984375 6.125 -10.984375 C 5.144531 -10.984375 4.40625 -10.820312 3.90625 -10.5 C 3.414062 -10.175781 3.171875 -9.75 3.171875 -9.21875 C 3.171875 -8.78125 3.304688 -8.429688 3.578125 -8.171875 C 3.847656 -7.910156 4.207031 -7.703125 4.65625 -7.546875 C 5.113281 -7.398438 5.617188 -7.265625 6.171875 -7.140625 L 6.828125 -7.015625 C 7.953125 -6.796875 8.898438 -6.546875 9.671875 -6.265625 C 10.453125 -5.992188 11.039062 -5.644531 11.4375 -5.21875 C 11.84375 -4.789062 12.046875 -4.238281 12.046875 -3.5625 C 12.046875 -2.757812 11.832031 -2.0625 11.40625 -1.46875 C 10.976562 -0.875 10.34375 -0.414062 9.5 -0.09375 C 8.65625 0.226562 7.617188 0.390625 6.390625 0.390625 C 5.679688 0.390625 5.007812 0.316406 4.375 0.171875 C 3.738281 0.0234375 3.160156 -0.195312 2.640625 -0.5 C 2.117188 -0.800781 1.679688 -1.179688 1.328125 -1.640625 C 0.984375 -2.109375 0.757812 -2.648438 0.65625 -3.265625 C 0.550781 -3.878906 0.597656 -4.570312 0.796875 -5.34375 L 2.75 -5.609375 C 2.59375 -4.992188 2.582031 -4.460938 2.71875 -4.015625 C 2.863281 -3.578125 3.109375 -3.222656 3.453125 -2.953125 C 3.804688 -2.679688 4.234375 -2.476562 4.734375 -2.34375 C 5.242188 -2.21875 5.785156 -2.15625 6.359375 -2.15625 C 7.035156 -2.15625 7.625 -2.234375 8.125 -2.390625 C 8.632812 -2.554688 9.03125 -2.785156 9.3125 -3.078125 C 9.601562 -3.367188 9.75 -3.71875 9.75 -4.125 C 9.75 -4.675781 9.445312 -5.117188 8.84375 -5.453125 C 8.25 -5.785156 7.378906 -6.085938 6.234375 -6.359375 Z M 5.5625 -6.515625 "/></g></g><g style="fill:#ede5de;fill-opacity:1;"><g transform="translate(507.605729, 161.863721)"><path style="stroke:none" d="M 7.046875 -2.140625 C 7.703125 -2.140625 8.285156 -2.234375 8.796875 -2.421875 C 9.316406 -2.617188 9.738281 -2.90625 10.0625 -3.28125 C 10.394531 -3.664062 10.59375 -4.144531 10.65625 -4.71875 L 12.515625 -3.921875 C 12.429688 -3.117188 12.15625 -2.390625 11.6875 -1.734375 C 11.21875 -1.078125 10.582031 -0.554688 9.78125 -0.171875 C 8.988281 0.210938 8.046875 0.40625 6.953125 0.40625 C 5.921875 0.40625 5.003906 0.234375 4.203125 -0.109375 C 3.398438 -0.453125 2.726562 -0.9375 2.1875 -1.5625 C 1.644531 -2.1875 1.234375 -2.925781 0.953125 -3.78125 C 0.671875 -4.632812 0.53125 -5.578125 0.53125 -6.609375 C 0.53125 -7.679688 0.691406 -8.640625 1.015625 -9.484375 C 1.347656 -10.335938 1.804688 -11.054688 2.390625 -11.640625 C 2.972656 -12.234375 3.660156 -12.6875 4.453125 -13 C 5.242188 -13.320312 6.109375 -13.484375 7.046875 -13.484375 C 8.015625 -13.484375 8.894531 -13.320312 9.6875 -13 C 10.488281 -12.675781 11.148438 -12.207031 11.671875 -11.59375 C 12.203125 -10.988281 12.539062 -10.253906 12.6875 -9.390625 C 12.84375 -8.523438 12.753906 -7.5625 12.421875 -6.5 L 2.875 -6.5 C 2.90625 -5.632812 3.078125 -4.875 3.390625 -4.21875 C 3.710938 -3.5625 4.179688 -3.050781 4.796875 -2.6875 C 5.410156 -2.320312 6.160156 -2.140625 7.046875 -2.140625 Z M 7.03125 -11.03125 C 5.800781 -11.03125 4.828125 -10.6875 4.109375 -10 C 3.398438 -9.320312 3 -8.390625 2.90625 -7.203125 L 10.296875 -7.203125 C 10.492188 -7.972656 10.472656 -8.644531 10.234375 -9.21875 C 10.003906 -9.789062 9.609375 -10.234375 9.046875 -10.546875 C 8.492188 -10.867188 7.820312 -11.03125 7.03125 -11.03125 Z M 7.03125 -11.03125 "/></g></g><g style="fill:#ede5de;fill-opacity:1;"><g transform="translate(520.909165, 161.863721)"><path style="stroke:none" d="M 7.046875 -2.140625 C 7.703125 -2.140625 8.285156 -2.234375 8.796875 -2.421875 C 9.316406 -2.617188 9.738281 -2.90625 10.0625 -3.28125 C 10.394531 -3.664062 10.59375 -4.144531 10.65625 -4.71875 L 12.515625 -3.921875 C 12.429688 -3.117188 12.15625 -2.390625 11.6875 -1.734375 C 11.21875 -1.078125 10.582031 -0.554688 9.78125 -0.171875 C 8.988281 0.210938 8.046875 0.40625 6.953125 0.40625 C 5.921875 0.40625 5.003906 0.234375 4.203125 -0.109375 C 3.398438 -0.453125 2.726562 -0.9375 2.1875 -1.5625 C 1.644531 -2.1875 1.234375 -2.925781 0.953125 -3.78125 C 0.671875 -4.632812 0.53125 -5.578125 0.53125 -6.609375 C 0.53125 -7.679688 0.691406 -8.640625 1.015625 -9.484375 C 1.347656 -10.335938 1.804688 -11.054688 2.390625 -11.640625 C 2.972656 -12.234375 3.660156 -12.6875 4.453125 -13 C 5.242188 -13.320312 6.109375 -13.484375 7.046875 -13.484375 C 8.015625 -13.484375 8.894531 -13.320312 9.6875 -13 C 10.488281 -12.675781 11.148438 -12.207031 11.671875 -11.59375 C 12.203125 -10.988281 12.539062 -10.253906 12.6875 -9.390625 C 12.84375 -8.523438 12.753906 -7.5625 12.421875 -6.5 L 2.875 -6.5 C 2.90625 -5.632812 3.078125 -4.875 3.390625 -4.21875 C 3.710938 -3.5625 4.179688 -3.050781 4.796875 -2.6875 C 5.410156 -2.320312 6.160156 -2.140625 7.046875 -2.140625 Z M 7.03125 -11.03125 C 5.800781 -11.03125 4.828125 -10.6875 4.109375 -10 C 3.398438 -9.320312 3 -8.390625 2.90625 -7.203125 L 10.296875 -7.203125 C 10.492188 -7.972656 10.472656 -8.644531 10.234375 -9.21875 C 10.003906 -9.789062 9.609375 -10.234375 9.046875 -10.546875 C 8.492188 -10.867188 7.820312 -11.03125 7.03125 -11.03125 Z M 7.03125 -11.03125 "/></g></g><g style="fill:#ede5de;fill-opacity:1;"><g transform="translate(534.212601, 161.863721)"><path style="stroke:none" d="M 2.515625 -14.53125 C 1.929688 -14.53125 1.484375 -14.675781 1.171875 -14.96875 C 0.859375 -15.257812 0.703125 -15.675781 0.703125 -16.21875 C 0.703125 -16.769531 0.859375 -17.1875 1.171875 -17.46875 C 1.484375 -17.75 1.929688 -17.890625 2.515625 -17.890625 C 3.097656 -17.890625 3.546875 -17.75 3.859375 -17.46875 C 4.171875 -17.1875 4.328125 -16.769531 4.328125 -16.21875 C 4.328125 -15.675781 4.171875 -15.257812 3.859375 -14.96875 C 3.546875 -14.675781 3.097656 -14.53125 2.515625 -14.53125 Z M 1.234375 0 L 1.234375 -13.0625 C 2.085938 -12.863281 2.9375 -12.863281 3.78125 -13.0625 L 3.78125 0 Z M 1.234375 0 "/></g></g><g style="fill:#ede5de;fill-opacity:1;"><g transform="translate(539.239776, 161.863721)"><path style="stroke:none" d="M 13.859375 0 L 11.328125 0 L 11.328125 -6.75 C 11.328125 -8.101562 11.066406 -9.101562 10.546875 -9.75 C 10.035156 -10.40625 9.21875 -10.734375 8.09375 -10.734375 C 7.488281 -10.734375 6.921875 -10.613281 6.390625 -10.375 C 5.867188 -10.132812 5.410156 -9.796875 5.015625 -9.359375 C 4.628906 -8.921875 4.328125 -8.398438 4.109375 -7.796875 C 3.890625 -7.191406 3.78125 -6.519531 3.78125 -5.78125 L 3.78125 0 L 1.234375 0 L 1.234375 -13.0625 L 3.953125 -13.0625 L 3.421875 -7.703125 L 3.546875 -7.703125 C 3.890625 -9.585938 4.546875 -11.019531 5.515625 -12 C 6.492188 -12.976562 7.726562 -13.46875 9.21875 -13.46875 C 10.113281 -13.46875 10.851562 -13.320312 11.4375 -13.03125 C 12.03125 -12.738281 12.503906 -12.320312 12.859375 -11.78125 C 13.210938 -11.25 13.46875 -10.609375 13.625 -9.859375 C 13.78125 -9.117188 13.859375 -8.296875 13.859375 -7.390625 Z M 13.859375 0 "/></g></g><g style="fill:#ede5de;fill-opacity:1;"><g transform="translate(554.218938, 161.863721)"><path style="stroke:none" d="M 3.15625 -2.765625 C 5.175781 -2.765625 6.863281 -2.703125 8.21875 -2.578125 C 9.570312 -2.453125 10.640625 -2.253906 11.421875 -1.984375 C 12.210938 -1.722656 12.78125 -1.378906 13.125 -0.953125 C 13.46875 -0.523438 13.640625 -0.0078125 13.640625 0.59375 C 13.640625 1.21875 13.484375 1.785156 13.171875 2.296875 C 12.859375 2.816406 12.425781 3.257812 11.875 3.625 C 11.320312 4 10.679688 4.28125 9.953125 4.46875 C 9.222656 4.664062 8.453125 4.765625 7.640625 4.765625 C 6.765625 4.765625 5.957031 4.679688 5.21875 4.515625 C 4.476562 4.347656 3.84375 4.09375 3.3125 3.75 C 2.78125 3.414062 2.382812 2.992188 2.125 2.484375 C 1.863281 1.984375 1.765625 1.398438 1.828125 0.734375 C 1.898438 0.078125 2.160156 -0.664062 2.609375 -1.5 L 0.75 -1.484375 C 0.539062 -1.972656 0.476562 -2.429688 0.5625 -2.859375 C 0.65625 -3.285156 0.867188 -3.65625 1.203125 -3.96875 C 1.546875 -4.289062 1.988281 -4.550781 2.53125 -4.75 C 3.070312 -4.945312 3.691406 -5.066406 4.390625 -5.109375 C 3.378906 -5.429688 2.613281 -5.945312 2.09375 -6.65625 C 1.570312 -7.363281 1.3125 -8.191406 1.3125 -9.140625 C 1.3125 -10.523438 1.789062 -11.59375 2.75 -12.34375 C 3.71875 -13.09375 5.101562 -13.46875 6.90625 -13.46875 C 8.113281 -13.46875 9.148438 -13.304688 10.015625 -12.984375 C 9.910156 -13.210938 9.816406 -13.457031 9.734375 -13.71875 C 9.660156 -13.976562 9.625 -14.242188 9.625 -14.515625 C 9.625 -14.910156 9.707031 -15.273438 9.875 -15.609375 C 10.050781 -15.941406 10.296875 -16.210938 10.609375 -16.421875 C 10.929688 -16.628906 11.304688 -16.75 11.734375 -16.78125 C 12.171875 -16.8125 12.648438 -16.722656 13.171875 -16.515625 L 13.1875 -14.234375 C 12.863281 -14.378906 12.535156 -14.425781 12.203125 -14.375 C 11.878906 -14.320312 11.601562 -14.191406 11.375 -13.984375 C 11.15625 -13.773438 11.046875 -13.503906 11.046875 -13.171875 C 11.046875 -13.015625 11.054688 -12.867188 11.078125 -12.734375 C 11.109375 -12.597656 11.144531 -12.476562 11.1875 -12.375 C 11.675781 -12.007812 12.050781 -11.554688 12.3125 -11.015625 C 12.570312 -10.472656 12.703125 -9.847656 12.703125 -9.140625 C 12.703125 -8.191406 12.460938 -7.390625 11.984375 -6.734375 C 11.503906 -6.078125 10.832031 -5.582031 9.96875 -5.25 C 9.101562 -4.914062 8.097656 -4.75 6.953125 -4.75 L 6.890625 -4.75 C 5.867188 -4.75 5.03125 -4.660156 4.375 -4.484375 C 3.71875 -4.316406 3.226562 -4.109375 2.90625 -3.859375 C 2.59375 -3.609375 2.4375 -3.351562 2.4375 -3.09375 C 2.4375 -2.976562 2.484375 -2.894531 2.578125 -2.84375 C 2.671875 -2.800781 2.863281 -2.773438 3.15625 -2.765625 Z M 3.5625 -8.828125 C 3.5625 -8.378906 3.6875 -7.953125 3.9375 -7.546875 C 4.1875 -7.140625 4.5625 -6.8125 5.0625 -6.5625 C 5.5625 -6.3125 6.191406 -6.1875 6.953125 -6.1875 C 7.734375 -6.1875 8.378906 -6.3125 8.890625 -6.5625 C 9.410156 -6.8125 9.796875 -7.140625 10.046875 -7.546875 C 10.304688 -7.953125 10.4375 -8.378906 10.4375 -8.828125 C 10.4375 -9.253906 10.3125 -9.648438 10.0625 -10.015625 C 9.8125 -10.378906 9.429688 -10.675781 8.921875 -10.90625 C 8.410156 -11.144531 7.765625 -11.265625 6.984375 -11.265625 C 6.203125 -11.265625 5.554688 -11.144531 5.046875 -10.90625 C 4.546875 -10.675781 4.171875 -10.378906 3.921875 -10.015625 C 3.679688 -9.648438 3.5625 -9.253906 3.5625 -8.828125 Z M 6.8125 2.0625 C 7.675781 2.0625 8.421875 1.96875 9.046875 1.78125 C 9.671875 1.601562 10.148438 1.347656 10.484375 1.015625 C 10.828125 0.691406 11 0.3125 11 -0.125 C 11 -0.488281 10.863281 -0.785156 10.59375 -1.015625 C 10.320312 -1.242188 9.882812 -1.414062 9.28125 -1.53125 C 8.675781 -1.65625 7.882812 -1.738281 6.90625 -1.78125 C 5.925781 -1.832031 4.726562 -1.863281 3.3125 -1.875 C 2.488281 -0.550781 2.378906 0.429688 2.984375 1.078125 C 3.597656 1.734375 4.875 2.0625 6.8125 2.0625 Z M 6.8125 2.0625 "/></g></g><g style="fill:#ede5de;fill-opacity:1;"><g transform="translate(567.957286, 161.863721)"><path style="stroke:none" d=""/></g></g><g style="fill:#ede5de;fill-opacity:1;"><g transform="translate(575.082296, 161.863721)"><path style="stroke:none" d="M 16.3125 0 L 13.484375 0 C 13.410156 -0.164062 13.332031 -0.359375 13.25 -0.578125 C 13.175781 -0.804688 13.097656 -1.101562 13.015625 -1.46875 C 12.929688 -1.832031 12.832031 -2.320312 12.71875 -2.9375 L 12.484375 -4.265625 C 12.347656 -5.023438 12.125 -5.671875 11.8125 -6.203125 C 11.507812 -6.742188 11.097656 -7.148438 10.578125 -7.421875 C 10.066406 -7.703125 9.421875 -7.84375 8.640625 -7.84375 L 4.421875 -7.84375 L 4.421875 0 L 1.515625 0 L 1.515625 -18.328125 L 9.71875 -18.328125 C 10.945312 -18.328125 12.023438 -18.15625 12.953125 -17.8125 C 13.878906 -17.46875 14.597656 -16.925781 15.109375 -16.1875 C 15.628906 -15.445312 15.890625 -14.46875 15.890625 -13.25 C 15.890625 -11.84375 15.476562 -10.734375 14.65625 -9.921875 C 13.84375 -9.117188 12.601562 -8.65625 10.9375 -8.53125 L 10.953125 -8.5 C 12.160156 -8.375 13.109375 -7.988281 13.796875 -7.34375 C 14.484375 -6.695312 14.929688 -5.820312 15.140625 -4.71875 L 15.390625 -3.25 C 15.492188 -2.65625 15.617188 -2.09375 15.765625 -1.5625 C 15.921875 -1.039062 16.101562 -0.519531 16.3125 0 Z M 4.421875 -9.21875 L 9.5 -9.21875 C 10.289062 -9.21875 10.960938 -9.320312 11.515625 -9.53125 C 12.078125 -9.75 12.503906 -10.097656 12.796875 -10.578125 C 13.097656 -11.054688 13.25 -11.6875 13.25 -12.46875 C 13.25 -13.21875 13.085938 -13.796875 12.765625 -14.203125 C 12.441406 -14.617188 11.992188 -14.90625 11.421875 -15.0625 C 10.859375 -15.226562 10.210938 -15.3125 9.484375 -15.3125 L 4.421875 -15.3125 Z M 4.421875 -9.21875 "/></g></g><g style="fill:#ede5de;fill-opacity:1;"><g transform="translate(591.85229, 161.863721)"><path style="stroke:none" d="M 7.234375 0.40625 C 5.828125 0.40625 4.617188 0.117188 3.609375 -0.453125 C 2.609375 -1.023438 1.84375 -1.832031 1.3125 -2.875 C 0.789062 -3.914062 0.53125 -5.132812 0.53125 -6.53125 C 0.53125 -7.96875 0.800781 -9.207031 1.34375 -10.25 C 1.882812 -11.289062 2.65625 -12.085938 3.65625 -12.640625 C 4.664062 -13.203125 5.878906 -13.484375 7.296875 -13.484375 C 8.691406 -13.484375 9.882812 -13.203125 10.875 -12.640625 C 11.863281 -12.085938 12.625 -11.289062 13.15625 -10.25 C 13.6875 -9.21875 13.953125 -7.984375 13.953125 -6.546875 C 13.953125 -5.128906 13.679688 -3.894531 13.140625 -2.84375 C 12.609375 -1.800781 11.84375 -1 10.84375 -0.4375 C 9.851562 0.125 8.648438 0.40625 7.234375 0.40625 Z M 7.25 -2.21875 C 8.132812 -2.21875 8.90625 -2.390625 9.5625 -2.734375 C 10.21875 -3.085938 10.722656 -3.585938 11.078125 -4.234375 C 11.441406 -4.890625 11.625 -5.664062 11.625 -6.5625 C 11.625 -7.445312 11.445312 -8.210938 11.09375 -8.859375 C 10.738281 -9.503906 10.226562 -10 9.5625 -10.34375 C 8.90625 -10.695312 8.128906 -10.875 7.234375 -10.875 C 6.335938 -10.875 5.5625 -10.695312 4.90625 -10.34375 C 4.25 -10 3.742188 -9.503906 3.390625 -8.859375 C 3.035156 -8.210938 2.859375 -7.441406 2.859375 -6.546875 C 2.859375 -5.648438 3.035156 -4.878906 3.390625 -4.234375 C 3.742188 -3.585938 4.25 -3.085938 4.90625 -2.734375 C 5.570312 -2.390625 6.351562 -2.21875 7.25 -2.21875 Z M 7.25 -2.21875 "/></g></g><g style="fill:#ede5de;fill-opacity:1;"><g transform="translate(606.332584, 161.863721)"><path style="stroke:none" d="M 13.765625 -2.328125 C 13.921875 -2.328125 14.078125 -2.335938 14.234375 -2.359375 C 14.390625 -2.390625 14.523438 -2.429688 14.640625 -2.484375 L 14.640625 0 C 14.421875 0.09375 14.148438 0.179688 13.828125 0.265625 C 13.515625 0.347656 13.175781 0.390625 12.8125 0.390625 C 12.226562 0.390625 11.78125 0.234375 11.46875 -0.078125 C 11.164062 -0.390625 10.984375 -0.921875 10.921875 -1.671875 C 10.859375 -2.421875 10.882812 -3.445312 11 -4.75 L 10.890625 -4.75 C 10.628906 -3.613281 10.210938 -2.660156 9.640625 -1.890625 C 9.066406 -1.128906 8.363281 -0.554688 7.53125 -0.171875 C 6.707031 0.210938 5.785156 0.40625 4.765625 0.40625 C 4.015625 0.40625 3.320312 0.28125 2.6875 0.03125 C 2.0625 -0.21875 1.554688 -0.601562 1.171875 -1.125 C 0.796875 -1.65625 0.609375 -2.320312 0.609375 -3.125 C 0.609375 -3.957031 0.835938 -4.640625 1.296875 -5.171875 C 1.765625 -5.710938 2.429688 -6.132812 3.296875 -6.4375 C 4.160156 -6.738281 5.207031 -6.941406 6.4375 -7.046875 C 7.664062 -7.160156 9.050781 -7.203125 10.59375 -7.171875 L 10.59375 -7.796875 C 10.59375 -8.816406 10.316406 -9.585938 9.765625 -10.109375 C 9.210938 -10.640625 8.351562 -10.90625 7.1875 -10.90625 C 6.707031 -10.90625 6.226562 -10.832031 5.75 -10.6875 C 5.28125 -10.550781 4.867188 -10.347656 4.515625 -10.078125 C 4.171875 -9.804688 3.921875 -9.460938 3.765625 -9.046875 C 3.617188 -8.640625 3.613281 -8.15625 3.75 -7.59375 L 1.9375 -7.828125 C 1.6875 -8.585938 1.628906 -9.304688 1.765625 -9.984375 C 1.910156 -10.660156 2.222656 -11.257812 2.703125 -11.78125 C 3.191406 -12.3125 3.832031 -12.722656 4.625 -13.015625 C 5.414062 -13.316406 6.328125 -13.46875 7.359375 -13.46875 C 8.503906 -13.46875 9.507812 -13.28125 10.375 -12.90625 C 11.238281 -12.53125 11.910156 -11.941406 12.390625 -11.140625 C 12.878906 -10.335938 13.125 -9.296875 13.125 -8.015625 L 13.125 -3.6875 C 13.125 -3.226562 13.164062 -2.882812 13.25 -2.65625 C 13.34375 -2.4375 13.515625 -2.328125 13.765625 -2.328125 Z M 5.828125 -2.078125 C 6.460938 -2.078125 7.066406 -2.164062 7.640625 -2.34375 C 8.210938 -2.53125 8.71875 -2.800781 9.15625 -3.15625 C 9.59375 -3.519531 9.941406 -3.976562 10.203125 -4.53125 C 10.460938 -5.09375 10.59375 -5.75 10.59375 -6.5 C 8.15625 -6.539062 6.296875 -6.34375 5.015625 -5.90625 C 3.734375 -5.476562 3.09375 -4.820312 3.09375 -3.9375 C 3.09375 -3.332031 3.347656 -2.867188 3.859375 -2.546875 C 4.367188 -2.234375 5.023438 -2.078125 5.828125 -2.078125 Z M 5.828125 -2.078125 "/></g></g><g style="fill:#ede5de;fill-opacity:1;"><g transform="translate(621.337321, 161.863721)"><path style="stroke:none" d="M 13.984375 0 L 11.28125 0 L 11.625 -3.8125 L 11.5 -3.8125 C 11.175781 -2.40625 10.570312 -1.347656 9.6875 -0.640625 C 8.8125 0.0546875 7.710938 0.40625 6.390625 0.40625 C 5.210938 0.40625 4.179688 0.117188 3.296875 -0.453125 C 2.421875 -1.023438 1.738281 -1.832031 1.25 -2.875 C 0.769531 -3.914062 0.53125 -5.144531 0.53125 -6.5625 C 0.53125 -8.039062 0.765625 -9.289062 1.234375 -10.3125 C 1.710938 -11.34375 2.390625 -12.125 3.265625 -12.65625 C 4.140625 -13.195312 5.175781 -13.46875 6.375 -13.46875 C 7.351562 -13.46875 8.191406 -13.265625 8.890625 -12.859375 C 9.597656 -12.453125 10.175781 -11.875 10.625 -11.125 C 11.070312 -10.382812 11.394531 -9.507812 11.59375 -8.5 L 11.703125 -8.5 C 11.671875 -9.019531 11.617188 -9.613281 11.546875 -10.28125 C 11.472656 -10.945312 11.4375 -11.601562 11.4375 -12.25 L 11.4375 -18.5 L 13.984375 -18.5 Z M 11.328125 -6.53125 C 11.328125 -7.476562 11.140625 -8.269531 10.765625 -8.90625 C 10.390625 -9.550781 9.875 -10.035156 9.21875 -10.359375 C 8.570312 -10.679688 7.851562 -10.84375 7.0625 -10.84375 C 6.226562 -10.84375 5.492188 -10.675781 4.859375 -10.34375 C 4.222656 -10.019531 3.726562 -9.535156 3.375 -8.890625 C 3.03125 -8.253906 2.859375 -7.476562 2.859375 -6.5625 C 2.859375 -5.664062 3.03125 -4.894531 3.375 -4.25 C 3.726562 -3.601562 4.222656 -3.101562 4.859375 -2.75 C 5.492188 -2.40625 6.238281 -2.234375 7.09375 -2.234375 C 8.457031 -2.234375 9.503906 -2.609375 10.234375 -3.359375 C 10.960938 -4.117188 11.328125 -5.175781 11.328125 -6.53125 Z M 11.328125 -6.53125 "/></g></g><g style="fill:#ede5de;fill-opacity:1;"><g transform="translate(636.546727, 161.863721)"><path style="stroke:none" d="M 9.375 -4.484375 L 11.265625 -4.40625 C 11.347656 -3.738281 11.320312 -3.113281 11.1875 -2.53125 C 11.050781 -1.945312 10.796875 -1.429688 10.421875 -0.984375 C 10.054688 -0.546875 9.582031 -0.207031 9 0.03125 C 8.414062 0.28125 7.71875 0.40625 6.90625 0.40625 C 5.851562 0.40625 5.003906 0.203125 4.359375 -0.203125 C 3.722656 -0.617188 3.257812 -1.203125 2.96875 -1.953125 C 2.6875 -2.710938 2.546875 -3.601562 2.546875 -4.625 L 2.546875 -10.515625 L 0.171875 -10.515625 L 0.171875 -13.0625 L 1.515625 -13.0625 C 2.078125 -13.0625 2.457031 -13.207031 2.65625 -13.5 C 2.863281 -13.789062 2.96875 -14.195312 2.96875 -14.71875 L 2.96875 -17.234375 L 5.0625 -17.234375 C 5.0625 -16.535156 5.054688 -15.953125 5.046875 -15.484375 C 5.046875 -15.023438 5.03125 -14.648438 5 -14.359375 C 4.96875 -14.066406 4.910156 -13.835938 4.828125 -13.671875 C 4.753906 -13.503906 4.644531 -13.375 4.5 -13.28125 L 4.5 -13.0625 L 9.421875 -13.0625 L 9.421875 -10.515625 L 5.09375 -10.515625 L 5.09375 -4.984375 C 5.09375 -4.273438 5.175781 -3.707031 5.34375 -3.28125 C 5.519531 -2.863281 5.769531 -2.566406 6.09375 -2.390625 C 6.414062 -2.210938 6.796875 -2.125 7.234375 -2.125 C 7.953125 -2.125 8.503906 -2.3125 8.890625 -2.6875 C 9.285156 -3.0625 9.445312 -3.660156 9.375 -4.484375 Z M 9.375 -4.484375 "/></g></g><g style="fill:#ede5de;fill-opacity:1;"><g transform="translate(647.956997, 161.863721)"><path style="stroke:none" d="M 3.78125 0 L 1.234375 0 L 1.234375 -13.0625 L 3.9375 -13.0625 L 3.421875 -7.59375 L 3.5625 -7.59375 C 3.757812 -8.8125 4.070312 -9.859375 4.5 -10.734375 C 4.9375 -11.617188 5.484375 -12.296875 6.140625 -12.765625 C 6.804688 -13.234375 7.578125 -13.46875 8.453125 -13.46875 C 9.148438 -13.46875 9.742188 -13.335938 10.234375 -13.078125 C 10.722656 -12.828125 11.109375 -12.472656 11.390625 -12.015625 C 11.671875 -11.566406 11.847656 -11.050781 11.921875 -10.46875 C 12.003906 -9.894531 11.992188 -9.273438 11.890625 -8.609375 C 11.785156 -7.953125 11.585938 -7.289062 11.296875 -6.625 L 9.5625 -6.671875 C 9.863281 -7.429688 9.988281 -8.113281 9.9375 -8.71875 C 9.894531 -9.320312 9.679688 -9.796875 9.296875 -10.140625 C 8.910156 -10.492188 8.347656 -10.671875 7.609375 -10.671875 C 7.054688 -10.671875 6.566406 -10.5625 6.140625 -10.34375 C 5.722656 -10.132812 5.363281 -9.847656 5.0625 -9.484375 C 4.769531 -9.117188 4.523438 -8.71875 4.328125 -8.28125 C 4.140625 -7.84375 4 -7.390625 3.90625 -6.921875 C 3.820312 -6.460938 3.78125 -6.023438 3.78125 -5.609375 Z M 3.78125 0 "/></g></g><g style="fill:#ede5de;fill-opacity:1;"><g transform="translate(660.134758, 161.863721)"><path style="stroke:none" d="M 2.515625 -14.53125 C 1.929688 -14.53125 1.484375 -14.675781 1.171875 -14.96875 C 0.859375 -15.257812 0.703125 -15.675781 0.703125 -16.21875 C 0.703125 -16.769531 0.859375 -17.1875 1.171875 -17.46875 C 1.484375 -17.75 1.929688 -17.890625 2.515625 -17.890625 C 3.097656 -17.890625 3.546875 -17.75 3.859375 -17.46875 C 4.171875 -17.1875 4.328125 -16.769531 4.328125 -16.21875 C 4.328125 -15.675781 4.171875 -15.257812 3.859375 -14.96875 C 3.546875 -14.675781 3.097656 -14.53125 2.515625 -14.53125 Z M 1.234375 0 L 1.234375 -13.0625 C 2.085938 -12.863281 2.9375 -12.863281 3.78125 -13.0625 L 3.78125 0 Z M 1.234375 0 "/></g></g><g style="fill:#ede5de;fill-opacity:1;"><g transform="translate(665.161933, 161.863721)"><path style="stroke:none" d="M 1.234375 4.71875 L 1.234375 -13.0625 L 3.859375 -13.0625 L 3.53125 -8.53125 L 3.640625 -8.53125 C 3.828125 -9.539062 4.164062 -10.410156 4.65625 -11.140625 C 5.15625 -11.878906 5.753906 -12.453125 6.453125 -12.859375 C 7.160156 -13.265625 7.9375 -13.46875 8.78125 -13.46875 C 10 -13.46875 11.046875 -13.179688 11.921875 -12.609375 C 12.796875 -12.046875 13.46875 -11.242188 13.9375 -10.203125 C 14.40625 -9.171875 14.640625 -7.945312 14.640625 -6.53125 C 14.640625 -5.050781 14.40625 -3.789062 13.9375 -2.75 C 13.476562 -1.71875 12.8125 -0.929688 11.9375 -0.390625 C 11.0625 0.140625 10.015625 0.40625 8.796875 0.40625 C 7.972656 0.40625 7.207031 0.238281 6.5 -0.09375 C 5.789062 -0.4375 5.1875 -0.910156 4.6875 -1.515625 C 4.1875 -2.128906 3.835938 -2.832031 3.640625 -3.625 L 3.515625 -3.625 C 3.578125 -3.175781 3.632812 -2.691406 3.6875 -2.171875 C 3.75 -1.660156 3.78125 -1.191406 3.78125 -0.765625 L 3.78125 4.71875 Z M 7.953125 -2.296875 C 8.785156 -2.296875 9.507812 -2.457031 10.125 -2.78125 C 10.738281 -3.101562 11.21875 -3.578125 11.5625 -4.203125 C 11.90625 -4.835938 12.078125 -5.613281 12.078125 -6.53125 C 12.078125 -7.425781 11.90625 -8.1875 11.5625 -8.8125 C 11.21875 -9.445312 10.734375 -9.929688 10.109375 -10.265625 C 9.492188 -10.597656 8.757812 -10.765625 7.90625 -10.765625 C 6.59375 -10.765625 5.566406 -10.394531 4.828125 -9.65625 C 4.085938 -8.914062 3.71875 -7.875 3.71875 -6.53125 C 3.71875 -5.59375 3.890625 -4.804688 4.234375 -4.171875 C 4.585938 -3.546875 5.082031 -3.078125 5.71875 -2.765625 C 6.351562 -2.453125 7.097656 -2.296875 7.953125 -2.296875 Z M 7.953125 -2.296875 "/></g></g><g clip-rule="nonzero" clip-path="url(#d0b710bc1b)"><g clip-rule="nonzero" clip-path="url(#3d53ac1167)"><path style=" stroke:none;fill-rule:nonzero;fill:#ede5de;fill-opacity:1;" d="M 0.839844 184.1875 L 943.964844 184.1875 L 943.964844 374.597656 L 0.839844 374.597656 Z M 0.839844 184.1875 "/></g></g><g style="fill:#e65e07;fill-opacity:1;"><g transform="translate(227.174694, 318.038901)"><path style="stroke:none" d="M 6.046875 0 L 6.046875 -73.359375 L 33.25 -73.359375 C 45.570312 -73.359375 54.789062 -70.304688 60.90625 -64.203125 C 67.019531 -58.109375 70.078125 -49.070312 70.078125 -37.09375 C 70.078125 -24.832031 66.941406 -15.582031 60.671875 -9.34375 C 54.410156 -3.113281 44.960938 0 32.328125 0 Z M 34.015625 -12.03125 C 42.722656 -12.03125 49.113281 -14.140625 53.1875 -18.359375 C 57.269531 -22.578125 59.3125 -28.800781 59.3125 -37.03125 C 59.3125 -44.988281 57.3125 -51.023438 53.3125 -55.140625 C 49.320312 -59.253906 43.0625 -61.3125 34.53125 -61.3125 L 17.71875 -61.3125 L 17.71875 -12.03125 Z M 34.015625 -12.03125 "/></g></g><g style="fill:#e65e07;fill-opacity:1;"><g transform="translate(300.116801, 318.038901)"><path style="stroke:none" d="M 55.109375 -9.328125 C 55.722656 -9.328125 56.347656 -9.375 56.984375 -9.46875 C 57.617188 -9.570312 58.15625 -9.726562 58.59375 -9.9375 L 58.59375 0 C 57.738281 0.375 56.671875 0.734375 55.390625 1.078125 C 54.117188 1.421875 52.765625 1.59375 51.328125 1.59375 C 48.972656 1.59375 47.179688 0.960938 45.953125 -0.296875 C 44.722656 -1.566406 43.976562 -3.695312 43.71875 -6.6875 C 43.457031 -9.675781 43.566406 -13.78125 44.046875 -19 L 43.59375 -19 C 42.570312 -14.457031 40.90625 -10.65625 38.59375 -7.59375 C 36.289062 -4.539062 33.484375 -2.238281 30.171875 -0.6875 C 26.859375 0.863281 23.171875 1.640625 19.109375 1.640625 C 16.097656 1.640625 13.328125 1.132812 10.796875 0.125 C 8.273438 -0.882812 6.253906 -2.4375 4.734375 -4.53125 C 3.210938 -6.632812 2.453125 -9.289062 2.453125 -12.5 C 2.453125 -15.84375 3.375 -18.585938 5.21875 -20.734375 C 7.0625 -22.890625 9.71875 -24.566406 13.1875 -25.765625 C 16.65625 -26.960938 20.847656 -27.78125 25.765625 -28.21875 C 30.679688 -28.664062 36.226562 -28.835938 42.40625 -28.734375 L 42.40625 -31.1875 C 42.40625 -35.289062 41.296875 -38.390625 39.078125 -40.484375 C 36.859375 -42.585938 33.425781 -43.640625 28.78125 -43.640625 C 26.84375 -43.640625 24.929688 -43.363281 23.046875 -42.8125 C 21.171875 -42.269531 19.53125 -41.453125 18.125 -40.359375 C 16.726562 -39.265625 15.722656 -37.890625 15.109375 -36.234375 C 14.492188 -34.578125 14.460938 -32.625 15.015625 -30.375 L 7.734375 -31.34375 C 6.742188 -34.382812 6.53125 -37.257812 7.09375 -39.96875 C 7.65625 -42.6875 8.910156 -45.097656 10.859375 -47.203125 C 12.804688 -49.304688 15.359375 -50.953125 18.515625 -52.140625 C 21.671875 -53.335938 25.316406 -53.9375 29.453125 -53.9375 C 34.023438 -53.9375 38.046875 -53.1875 41.515625 -51.6875 C 44.984375 -50.1875 47.691406 -47.828125 49.640625 -44.609375 C 51.585938 -41.398438 52.5625 -37.21875 52.5625 -32.0625 L 52.5625 -14.75 C 52.5625 -12.9375 52.738281 -11.578125 53.09375 -10.671875 C 53.445312 -9.773438 54.117188 -9.328125 55.109375 -9.328125 Z M 23.359375 -8.34375 C 25.890625 -8.34375 28.296875 -8.703125 30.578125 -9.421875 C 32.867188 -10.140625 34.890625 -11.210938 36.640625 -12.640625 C 38.398438 -14.078125 39.800781 -15.914062 40.84375 -18.15625 C 41.882812 -20.394531 42.40625 -23.015625 42.40625 -26.015625 C 32.644531 -26.191406 25.203125 -25.414062 20.078125 -23.6875 C 14.953125 -21.96875 12.390625 -19.332031 12.390625 -15.78125 C 12.390625 -13.351562 13.414062 -11.503906 15.46875 -10.234375 C 17.519531 -8.972656 20.148438 -8.34375 23.359375 -8.34375 Z M 23.359375 -8.34375 "/></g></g><g style="fill:#e65e07;fill-opacity:1;"><g transform="translate(360.201837, 318.038901)"><path style="stroke:none" d="M 44.71875 -52.296875 L 55.171875 -52.296875 L 33.859375 0.109375 C 32.078125 4.472656 30.316406 8.101562 28.578125 11 C 26.835938 13.90625 24.914062 16.078125 22.8125 17.515625 C 20.71875 18.953125 18.21875 19.671875 15.3125 19.671875 C 12.820312 19.671875 10.585938 19.070312 8.609375 17.875 C 6.628906 16.675781 5.070312 15.0625 3.9375 13.03125 C 2.8125 11 2.285156 8.753906 2.359375 6.296875 L 7.328125 2.3125 C 7.222656 3.738281 7.507812 5.023438 8.1875 6.171875 C 8.875 7.316406 9.847656 8.226562 11.109375 8.90625 C 12.378906 9.59375 13.796875 9.9375 15.359375 9.9375 C 17.066406 9.9375 18.519531 9.601562 19.71875 8.9375 C 20.914062 8.269531 22.035156 7.082031 23.078125 5.375 C 24.117188 3.664062 25.21875 1.296875 26.375 -1.734375 L 21.875 -1.734375 L 1.171875 -52.296875 L 11.734375 -52.296875 C 14.015625 -47.003906 15.96875 -42.351562 17.59375 -38.34375 C 19.21875 -34.332031 20.582031 -30.796875 21.6875 -27.734375 C 22.800781 -24.679688 23.734375 -21.972656 24.484375 -19.609375 C 25.234375 -17.253906 25.863281 -15.101562 26.375 -13.15625 C 26.894531 -11.21875 27.359375 -9.304688 27.765625 -7.421875 L 28.578125 -7.421875 C 29.054688 -9.304688 29.578125 -11.242188 30.140625 -13.234375 C 30.703125 -15.234375 31.367188 -17.445312 32.140625 -19.875 C 32.910156 -22.300781 33.847656 -25.039062 34.953125 -28.09375 C 36.066406 -31.15625 37.425781 -34.671875 39.03125 -38.640625 C 40.632812 -42.617188 42.53125 -47.171875 44.71875 -52.296875 Z M 44.71875 -52.296875 "/></g></g><g style="fill:#e65e07;fill-opacity:1;"><g transform="translate(415.625544, 318.038901)"><path style="stroke:none" d="M 37.234375 0 L 25.5625 0 L 25.5625 -61.3125 L 0.875 -61.3125 L 0.875 -73.359375 L 61.875 -73.359375 L 61.875 -61.3125 L 37.234375 -61.3125 Z M 37.234375 0 "/></g></g><g style="fill:#e65e07;fill-opacity:1;"><g transform="translate(478.374196, 318.038901)"><path style="stroke:none" d="M 15.109375 0 L 4.96875 0 L 4.96875 -52.296875 L 15.78125 -52.296875 L 13.734375 -30.421875 L 14.234375 -30.421875 C 15.054688 -35.304688 16.328125 -39.503906 18.046875 -43.015625 C 19.773438 -46.535156 21.960938 -49.234375 24.609375 -51.109375 C 27.253906 -52.992188 30.335938 -53.9375 33.859375 -53.9375 C 36.660156 -53.9375 39.035156 -53.421875 40.984375 -52.390625 C 42.929688 -51.367188 44.46875 -49.953125 45.59375 -48.140625 C 46.71875 -46.335938 47.441406 -44.273438 47.765625 -41.953125 C 48.085938 -39.628906 48.035156 -37.144531 47.609375 -34.5 C 47.179688 -31.851562 46.390625 -29.195312 45.234375 -26.53125 L 38.265625 -26.734375 C 39.492188 -29.773438 40.015625 -32.5 39.828125 -34.90625 C 39.640625 -37.3125 38.769531 -39.210938 37.21875 -40.609375 C 35.664062 -42.015625 33.421875 -42.71875 30.484375 -42.71875 C 28.265625 -42.71875 26.304688 -42.289062 24.609375 -41.4375 C 22.921875 -40.582031 21.476562 -39.429688 20.28125 -37.984375 C 19.082031 -36.535156 18.097656 -34.929688 17.328125 -33.171875 C 16.566406 -31.410156 16.003906 -29.597656 15.640625 -27.734375 C 15.285156 -25.878906 15.109375 -24.128906 15.109375 -22.484375 Z M 15.109375 0 "/></g></g><g style="fill:#e65e07;fill-opacity:1;"><g transform="translate(527.138862, 318.038901)"><path style="stroke:none" d="M 10.09375 -58.1875 C 7.738281 -58.1875 5.9375 -58.765625 4.6875 -59.921875 C 3.4375 -61.085938 2.8125 -62.765625 2.8125 -64.953125 C 2.8125 -67.140625 3.4375 -68.796875 4.6875 -69.921875 C 5.9375 -71.046875 7.738281 -71.609375 10.09375 -71.609375 C 12.414062 -71.609375 14.195312 -71.046875 15.4375 -69.921875 C 16.6875 -68.796875 17.3125 -67.140625 17.3125 -64.953125 C 17.3125 -62.765625 16.6875 -61.085938 15.4375 -59.921875 C 14.195312 -58.765625 12.414062 -58.1875 10.09375 -58.1875 Z M 4.96875 0 L 4.96875 -52.296875 C 8.382812 -51.515625 11.78125 -51.515625 15.15625 -52.296875 L 15.15625 0 Z M 4.96875 0 "/></g></g><g style="fill:#e65e07;fill-opacity:1;"><g transform="translate(547.269654, 318.038901)"><path style="stroke:none" d="M 4.96875 18.90625 L 4.96875 -52.296875 L 15.46875 -52.296875 L 14.140625 -34.171875 L 14.59375 -34.171875 C 15.34375 -38.191406 16.695312 -41.679688 18.65625 -44.640625 C 20.625 -47.597656 23.023438 -49.882812 25.859375 -51.5 C 28.703125 -53.125 31.796875 -53.9375 35.140625 -53.9375 C 40.023438 -53.9375 44.21875 -52.789062 47.71875 -50.5 C 51.21875 -48.21875 53.90625 -45 55.78125 -40.84375 C 57.65625 -36.695312 58.59375 -31.789062 58.59375 -26.125 C 58.59375 -20.21875 57.660156 -15.1875 55.796875 -11.03125 C 53.941406 -6.882812 51.265625 -3.734375 47.765625 -1.578125 C 44.265625 0.566406 40.070312 1.640625 35.1875 1.640625 C 31.90625 1.640625 28.847656 0.957031 26.015625 -0.40625 C 23.179688 -1.769531 20.765625 -3.664062 18.765625 -6.09375 C 16.773438 -8.519531 15.382812 -11.320312 14.59375 -14.5 L 14.09375 -14.5 C 14.320312 -12.71875 14.546875 -10.796875 14.765625 -8.734375 C 14.992188 -6.671875 15.109375 -4.785156 15.109375 -3.078125 L 15.109375 18.90625 Z M 31.8125 -9.21875 C 35.15625 -9.21875 38.0625 -9.859375 40.53125 -11.140625 C 43.007812 -12.421875 44.929688 -14.320312 46.296875 -16.84375 C 47.671875 -19.375 48.359375 -22.46875 48.359375 -26.125 C 48.359375 -29.707031 47.671875 -32.757812 46.296875 -35.28125 C 44.929688 -37.8125 43.003906 -39.742188 40.515625 -41.078125 C 38.023438 -42.410156 35.070312 -43.078125 31.65625 -43.078125 C 26.394531 -43.078125 22.285156 -41.597656 19.328125 -38.640625 C 16.378906 -35.691406 14.90625 -31.535156 14.90625 -26.171875 C 14.90625 -22.378906 15.601562 -19.226562 17 -16.71875 C 18.40625 -14.207031 20.367188 -12.328125 22.890625 -11.078125 C 25.421875 -9.835938 28.394531 -9.21875 31.8125 -9.21875 Z M 31.8125 -9.21875 "/></g></g><g style="fill:#e65e07;fill-opacity:1;"><g transform="translate(608.071817, 318.038901)"><path style="stroke:none" d="M 4.96875 18.90625 L 4.96875 -52.296875 L 15.46875 -52.296875 L 14.140625 -34.171875 L 14.59375 -34.171875 C 15.34375 -38.191406 16.695312 -41.679688 18.65625 -44.640625 C 20.625 -47.597656 23.023438 -49.882812 25.859375 -51.5 C 28.703125 -53.125 31.796875 -53.9375 35.140625 -53.9375 C 40.023438 -53.9375 44.21875 -52.789062 47.71875 -50.5 C 51.21875 -48.21875 53.90625 -45 55.78125 -40.84375 C 57.65625 -36.695312 58.59375 -31.789062 58.59375 -26.125 C 58.59375 -20.21875 57.660156 -15.1875 55.796875 -11.03125 C 53.941406 -6.882812 51.265625 -3.734375 47.765625 -1.578125 C 44.265625 0.566406 40.070312 1.640625 35.1875 1.640625 C 31.90625 1.640625 28.847656 0.957031 26.015625 -0.40625 C 23.179688 -1.769531 20.765625 -3.664062 18.765625 -6.09375 C 16.773438 -8.519531 15.382812 -11.320312 14.59375 -14.5 L 14.09375 -14.5 C 14.320312 -12.71875 14.546875 -10.796875 14.765625 -8.734375 C 14.992188 -6.671875 15.109375 -4.785156 15.109375 -3.078125 L 15.109375 18.90625 Z M 31.8125 -9.21875 C 35.15625 -9.21875 38.0625 -9.859375 40.53125 -11.140625 C 43.007812 -12.421875 44.929688 -14.320312 46.296875 -16.84375 C 47.671875 -19.375 48.359375 -22.46875 48.359375 -26.125 C 48.359375 -29.707031 47.671875 -32.757812 46.296875 -35.28125 C 44.929688 -37.8125 43.003906 -39.742188 40.515625 -41.078125 C 38.023438 -42.410156 35.070312 -43.078125 31.65625 -43.078125 C 26.394531 -43.078125 22.285156 -41.597656 19.328125 -38.640625 C 16.378906 -35.691406 14.90625 -31.535156 14.90625 -26.171875 C 14.90625 -22.378906 15.601562 -19.226562 17 -16.71875 C 18.40625 -14.207031 20.367188 -12.328125 22.890625 -11.078125 C 25.421875 -9.835938 28.394531 -9.21875 31.8125 -9.21875 Z M 31.8125 -9.21875 "/></g></g><g style="fill:#e65e07;fill-opacity:1;"><g transform="translate(668.87398, 318.038901)"><path style="stroke:none" d="M 15.109375 0 L 4.96875 0 L 4.96875 -52.296875 L 15.78125 -52.296875 L 13.734375 -30.421875 L 14.234375 -30.421875 C 15.054688 -35.304688 16.328125 -39.503906 18.046875 -43.015625 C 19.773438 -46.535156 21.960938 -49.234375 24.609375 -51.109375 C 27.253906 -52.992188 30.335938 -53.9375 33.859375 -53.9375 C 36.660156 -53.9375 39.035156 -53.421875 40.984375 -52.390625 C 42.929688 -51.367188 44.46875 -49.953125 45.59375 -48.140625 C 46.71875 -46.335938 47.441406 -44.273438 47.765625 -41.953125 C 48.085938 -39.628906 48.035156 -37.144531 47.609375 -34.5 C 47.179688 -31.851562 46.390625 -29.195312 45.234375 -26.53125 L 38.265625 -26.734375 C 39.492188 -29.773438 40.015625 -32.5 39.828125 -34.90625 C 39.640625 -37.3125 38.769531 -39.210938 37.21875 -40.609375 C 35.664062 -42.015625 33.421875 -42.71875 30.484375 -42.71875 C 28.265625 -42.71875 26.304688 -42.289062 24.609375 -41.4375 C 22.921875 -40.582031 21.476562 -39.429688 20.28125 -37.984375 C 19.082031 -36.535156 18.097656 -34.929688 17.328125 -33.171875 C 16.566406 -31.410156 16.003906 -29.597656 15.640625 -27.734375 C 15.285156 -25.878906 15.109375 -24.128906 15.109375 -22.484375 Z M 15.109375 0 "/></g></g><g clip-rule="nonzero" clip-path="url(#c97d1c6636)"><path style="fill:none;stroke-width:3;stroke-linecap:butt;stroke-linejoin:miter;stroke:#ede5de;stroke-opacity:1;stroke-miterlimit:4;" d="M 0.00208538 1.502473 L 1260.001724 1.502473 " transform="matrix(0.748574,0,0,0.748574,0.838283,-0.140338)"/></g><g clip-rule="nonzero" clip-path="url(#686e32bb4f)"><path style="fill:none;stroke-width:3;stroke-linecap:butt;stroke-linejoin:miter;stroke:#ede5de;stroke-opacity:1;stroke-miterlimit:4;" d="M 0.00208538 1.497636 L 1260.001724 1.497636 " transform="matrix(0.748574,0,0,0.748574,0.838283,104.445314)"/></g></g></svg>